<?xml version="1.0" encoding="utf-8"?>
<!-- Generator: Adobe Illustrator 19.2.0, SVG Export Plug-In . SVG Version: 6.00 Build 0)  -->
<svg version="1.0" xmlns="http://www.w3.org/2000/svg" xmlns:xlink="http://www.w3.org/1999/xlink" x="0px" y="0px"
	 viewBox="0 0 64 64" style="enable-background:new 0 0 64 64;" xml:space="preserve">
<g id="Demos">
</g>
<g id="Events">
</g>
<g id="Messages_1_">
</g>
<g id="Notifications_1_">
</g>
<g id="Requests_1_">
</g>
<g id="NewsFeed">
</g>
<g id="Groups_Archive" style="display:none;">
</g>
<g id="Groups">
</g>
<g id="Layer_9">
	<g>
		<path style="opacity:0.6;fill:#FFFFFF;" d="M23.8,12.1h-2c0-0.5-0.2-1-0.5-1.3c-0.4-0.3-0.8-0.6-1.3-0.6c-1,0-1.8,0.8-1.8,1.9h-2
			C16.2,9.9,18,8.2,20,8.2c1,0,1.9,0.4,2.6,1.1c0,0,0.1,0.1,0.1,0.1C23.4,10.1,23.8,11.1,23.8,12.1z"/>
		<path style="opacity:0.6;fill:#FFFFFF;" d="M23.6,38.7l-0.1,13.4c0,1-0.4,2-1.1,2.8c0,0-0.1,0.1-0.1,0.1c-0.7,0.7-1.6,1.1-2.6,1.1
			c-2.1,0-3.8-1.8-3.8-4L16,38.7h2l-0.1,13.4c0,1.1,0.8,2,1.8,2c0.5,0,0.9-0.2,1.3-0.6c0.4-0.4,0.6-0.9,0.6-1.4l0.1-13.4H23.6z"/>
	</g>
	<path style="fill:#FFFFFF;" d="M45.1,25.5l9.1-13.5H12.7v6.6l3.4,1.6v10.6L12.7,32v6.7h41.5L45.1,25.5z M14.7,36.7v-3.3l3.4-1.2V19
		l-3.4-1.6v-3.3h35.7l-7.7,11.5l7.7,11.2H14.7z"/>
	<rect style="fill:none;" width="64" height="64"/>
</g>
</svg>
