<?xml version="1.0" encoding="utf-8"?>
<!-- Generator: Adobe Illustrator 19.2.0, SVG Export Plug-In . SVG Version: 6.00 Build 0)  -->
<svg version="1.0" xmlns="http://www.w3.org/2000/svg" xmlns:xlink="http://www.w3.org/1999/xlink" x="0px" y="0px"
	 viewBox="0 0 512 512" style="enable-background:new 0 0 512 512;" xml:space="preserve">
<g id="Layer_3">
</g>
<g id="Layer_2">
	<rect x="255" y="272" style="fill:#2B2B2B;" width="1.9" height="153.6"/>
	<g>
		<path style="fill:#F2F2F2;" d="M315.4,98.1H196.6C214,66,253,66,256,66C259,66,298,66,315.4,98.1z"/>
		<path style="fill:#E0E0E0;" d="M256,66c3,0,42,0,59.4,32.2H256"/>
	</g>
	<path style="fill:#DCC7B0;" d="M341.2,166.1c0.9,3.9,1.7,8,2.4,12.2l0,0c4,24.9,4,50.9,4,50.9s21.3-3.6,21.3,17.8
		c0,17.8-2.7,34.4-5.3,39.1c-2.7,4.7-6.7,8.3-13.3,8.3h-5.3c-2.7,9.5-6.7,20.1-10.7,27.2c-17.3,36.7-45.3,61.6-80,61.6
		c-32,0-62.6-23.7-80-61.6c-4-8.3-6.7-17.8-9.3-26.1h-4c-6.7,0-10.7-3.6-13.3-8.3c-2.7-4.7-5.3-22.5-5.3-39.1
		c0-21.3,21.3-17.8,21.3-17.8s0-24.9,4-50.9c0.7-4.5,1.5-9,2.5-13.4"/>
	<path style="fill:#333333;" d="M206.7,236.3c-3.4-4.6-5.5-11.2-5.5-18.6c0-13.8,7.4-25,16.5-25c9.1,0,16.5,11.2,16.5,25
		c0,10.8-4.5,19.9-10.8,23.4"/>
	<path style="fill:#333333;" d="M288.2,241.4c-6.5-3.3-11.2-12.7-11.2-23.6c0-13.8,7.4-25,16.5-25s16.5,11.2,16.5,25
		c0,7.6-2.2,14.4-5.8,19"/>
	<path style="display:none;fill:#C7B299;" d="M198.7,135.6c-2.7,9-8.7,25.8-10.7,47.3l73.7,29.7v-77H198.7z"/>
	<polygon style="fill:#736357;" points="256,272 256,426.1 229,417.8 109.5,378.1 99.6,226.3 122.9,233.1 229,264.1 	"/>
	<polygon style="fill:#534741;" points="256,272 256,426.2 283,417.9 404.7,378.2 412.4,226.3 389.1,233.2 283,264.2 	"/>
	<path style="fill:#FFFFFF;" d="M256,263.3v8.7l133.1-38.9l8-2.5l-12.7-17.2c0,0-107.2,31.1-115.1,33.5
		C261.3,249.4,256,257.2,256,263.3z"/>
	<path style="fill:#FFFFFF;" d="M256,263.2v8.7l-133.1-38.9l-8-2.5l12.7-17.2c0,0,107.2,31.1,115.1,33.5
		C250.7,249.3,256,257.1,256,263.2z"/>
	<path style="fill:#DCC7B0;" d="M139.6,339.4c-9.1,5.9-35.1,4.8-35.1,4.8v0c-15.7,0-28.5-18.8-28.5-42c0-23.2,12.8-42,28.5-42
		c9,0,17.1,6.2,22.3,15.9c7.2,1.4,15.7,4.1,19.8,9.3C154.4,295.4,148.7,333.5,139.6,339.4z"/>
	<path style="display:none;fill:#C7B299;" d="M324.7,135c2.7,9,8.7,25.8,10.7,47.3L261.7,212v-77H324.7z"/>
	<polygon style="fill:#FFFFFF;" points="364.9,97.1 353.6,143.5 158.4,143.5 147.1,97.1 	"/>
	<path style="fill:#DCC7B0;" d="M372.7,338.7c9.1,5.9,35.1,4.8,35.1,4.8v0c15.7,0,28.5-18.8,28.5-42c0-23.2-12.8-42-28.5-42
		c-9,0-17.1,6.2-22.3,15.9c-7.2,1.4-15.7,4.1-19.8,9.3C357.9,294.7,363.5,332.8,372.7,338.7z"/>
	<polygon style="fill:#333333;" points="256,272 256,426.1 229,417.8 229,264.1 	"/>
	<polygon style="fill:#2B2B2B;" points="256,272 256,426.2 283,417.9 283,264.2 	"/>
	<polygon style="fill:#333333;" points="353.6,143.5 347.8,167.4 164.2,167.4 158.4,143.5 	"/>
	<polygon style="fill:#D9D9D9;" points="364.9,97.1 353.6,143.5 256,143.5 256,97.1 	"/>
	<g>
		<defs>
			<polygon id="SVGID_1_" points="353.6,143.5 347.8,167.4 164.2,167.4 158.4,143.5 			"/>
		</defs>
		<clipPath id="SVGID_2_">
			<use xlink:href="#SVGID_1_"  style="overflow:visible;"/>
		</clipPath>
		<polygon style="clip-path:url(#SVGID_2_);fill:#2B2B2B;" points="256,143.5 256,167.4 347.8,167.4 353.6,143.5 		"/>
	</g>
</g>
</svg>
