<?xml version="1.0" encoding="utf-8"?>
<!-- Generator: Adobe Illustrator 19.2.0, SVG Export Plug-In . SVG Version: 6.00 Build 0)  -->
<svg version="1.0" xmlns="http://www.w3.org/2000/svg" xmlns:xlink="http://www.w3.org/1999/xlink" x="0px" y="0px"
	 viewBox="0 0 512 512" style="enable-background:new 0 0 512 512;" xml:space="preserve">
<g id="Layer_3">
</g>
<g id="Layer_2">
	<path style="fill:#DCC7B0;" d="M343.6,179.5c4,24.7,4,50.6,4,50.6s21.3-3.5,21.3,17.7c0,17.7-2.7,34.1-5.3,38.9
		c-2.7,4.7-6.7,8.2-13.3,8.2h-5.3c-2.7,9.4-6.7,20-10.7,27.1c-17.3,36.5-45.3,61.2-80,61.2c-32,0-62.6-23.5-80-61.2
		c-4-8.2-6.7-17.7-9.3-25.9h-4c-6.7,0-10.7-3.5-13.3-8.2c-2.7-4.7-5.3-22.4-5.3-38.9c0-21.2,21.3-17.7,21.3-17.7s0-24.7,4-50.6
		c2.7-16.5,6.7-33,13.3-41.2c17.3-22.4,49.3-21.2,74.6-23.5c26.7-2.4,57.3-18.8,57.3-18.8c-2.7,10.6,1.3,24.7,10.7,31.8
		C331.6,134.8,339.6,154.8,343.6,179.5L343.6,179.5z"/>
	<ellipse style="fill:#333333;" cx="217.7" cy="217.7" rx="16.5" ry="25"/>
	<ellipse style="fill:#333333;" cx="293.5" cy="217.7" rx="16.5" ry="25"/>
	<path style="display:none;fill:#C7B299;" d="M198.7,135.6c-2.7,9-8.7,25.8-10.7,47.3l73.7,29.7v-77H198.7z"/>
	<polygon style="fill:#736357;" points="256,272 256,426.1 229,417.8 109.5,378.1 99.6,226.3 122.9,233.1 229,264.1 	"/>
	<polygon style="fill:#534741;" points="256,272 256,426.2 283,417.9 404.7,378.2 412.4,226.3 389.1,233.2 283,264.2 	"/>
	<path style="fill:#FFFFFF;" d="M256,263.3v8.7l133.1-38.9l8-2.5l-12.7-17.2c0,0-107.2,31.1-115.1,33.5
		C261.3,249.4,256,257.2,256,263.3z"/>
	<path style="fill:#FFFFFF;" d="M256,263.2v8.7l-133.1-38.9l-8-2.5l12.7-17.2c0,0,107.2,31.1,115.1,33.5
		C250.7,249.3,256,257.1,256,263.2z"/>
	<path style="fill:#DCC7B0;" d="M139.6,339.4c-9.1,5.9-35.1,4.8-35.1,4.8v0c-15.7,0-28.5-18.8-28.5-42c0-23.2,12.8-42,28.5-42
		c9,0,17.1,6.2,22.3,15.9c7.2,1.4,15.7,4.1,19.8,9.3C154.4,295.4,148.7,333.5,139.6,339.4z"/>
	<path style="display:none;fill:#C7B299;" d="M324.7,135c2.7,9,8.7,25.8,10.7,47.3L261.7,212v-77H324.7z"/>
	<g>
		<polygon style="fill:#FFFFFF;" points="255.6,97.1 255.6,167.4 163.8,167.4 157.9,143.2 146.7,97.1 		"/>
		<polygon style="fill:#D9D9D9;" points="364.5,97.1 353.3,143.2 347.4,167.4 255.6,167.4 255.6,97.1 		"/>
	</g>
	<g>
		<path style="fill:#E0E0E0;" d="M255.6,65c3,0,42,0,59.4,32.1h-59.4"/>
		<path style="fill:#F2F2F2;" d="M255.6,65c-3,0-42,0-59.4,32.1h59.4"/>
	</g>
	<path style="fill:#DCC7B0;" d="M372.7,338.7c9.1,5.9,35.1,4.8,35.1,4.8v0c15.7,0,28.5-18.8,28.5-42c0-23.2-12.8-42-28.5-42
		c-9,0-17.1,6.2-22.3,15.9c-7.2,1.4-15.7,4.1-19.8,9.3C357.9,294.7,363.5,332.8,372.7,338.7z"/>
	<polygon style="fill:#333333;" points="256,272 256,426.1 229,417.8 229,264.1 	"/>
	<polyline style="fill:#333333;" points="255.6,167.7 163.8,167.7 157.9,143.5 255.4,143.5 	"/>
	<polyline style="fill:#2B2B2B;" points="255.4,143.5 353.3,143.5 347.4,167.7 255.6,167.7 	"/>
	<polygon style="fill:#2B2B2B;" points="256,272 256,426.2 283,417.9 283,264.2 	"/>
</g>
</svg>
