<?xml version="1.0" encoding="utf-8"?>
<!-- Generator: Adobe Illustrator 19.2.0, SVG Export Plug-In . SVG Version: 6.00 Build 0)  -->
<svg version="1.0" id="Groups" xmlns="http://www.w3.org/2000/svg" xmlns:xlink="http://www.w3.org/1999/xlink" x="0px" y="0px"
	 viewBox="0 0 64 64" style="enable-background:new 0 0 64 64;" xml:space="preserve">
<style type="text/css">
	.st0{fill:#FFFFFF;}
	.st1{opacity:0.6;fill:#FFFFFF;enable-background:new    ;}
	.st2{fill:none;}
</style>
<title>icon-sailbook-groups</title>
<path class="st0" d="M40.9,37c-1-1.9-2.9-3.2-5.1-3.5c-0.7-0.8-0.8-1.9-0.4-2.8c0.8-1.1,1.4-2.3,1.7-3.5c0.6-2.6-0.2-5.2-1.9-7.1
	c-1.5-1.6-3.9-1.9-5.7-0.6c-2,1.6-3.1,4.1-2.8,6.6c0.1,1.5,0.6,3,1.5,4.3c0.4,0.6,0.5,1.3,0.3,2c-0.1,0.5-0.3,0.9-0.6,1.2
	c-2.5,0.5-4.6,1.8-5.3,4.3c-0.4,1.9-0.5,3.9-0.4,5.9h19.5C41.6,41.5,41.9,39,40.9,37z M32,20.5c2.3,0,3.3,3,3.3,4.9s-1,4.9-3.3,4.9
	C27.5,30.3,27.5,20.5,32,20.5z M24.1,41.7c0-2,0-4.3,1.9-5.5c0.9-0.6,2.1-0.5,3-1.1c0.9-0.8,1.4-1.9,1.5-3.1
	c0.9,0.3,1.8,0.4,2.7,0.1c0.1,0.9,0.4,1.8,1,2.6c0.8,1,2,0.8,3,1.3c2.3,1.1,2.3,3.5,2.3,5.7L24.1,41.7L24.1,41.7z"/>
<path class="st1" d="M47.7,38.2c-0.8-1.5-2.3-2.5-3.9-2.7c-0.4-0.7-0.5-1.6-0.2-2.3c2.5-2.8,1.7-9.8-3-9.6s-5.2,7-2.7,9.8l0,0
	c0.1,0.6,0.1,1.3-0.2,1.9l1.8,0.8c0.2-0.5,0.4-1,0.4-1.5c0.5,0.1,1,0.1,1.5,0c0,1.1,0.5,2.1,1.3,2.8c1.2,0.7,2.4,0.4,3.1,1.8
	c0.3,0.8,0.4,1.7,0.4,2.6H34v2h14.2C48.2,41.8,48.4,39.9,47.7,38.2C47.5,37.8,48.2,39.5,47.7,38.2z M40.7,32.6c-3.2,0-3.2-7,0-7
	S43.8,32.6,40.7,32.6L40.7,32.6z"/>
<path class="st1" d="M26.3,33.2c1.8-2.2,2-5.4,0.3-7.8c-1.1-1.8-3.5-2.3-5.3-1.2c-0.3,0.2-0.6,0.4-0.8,0.7c-1.9,2.2-2.1,5.5-0.4,7.9
	c0.4,0.5,0.6,1.1,0.5,1.8c0,0.6-0.4,1.1-1,1.1c-1.2,0.3-2.2,1-2.9,1.9c-1.2,1.8-0.9,4.1-0.9,6.1h7.4v-2h-5.3c0-1.4,0.1-3,1.5-3.8
	c0.7-0.2,1.4-0.4,2.1-0.7c0.8-0.7,1.2-1.6,1.3-2.7c0.5,0.1,1,0.1,1.5,0c0,0.5,0.1,0.9,0.3,1.3l1.9-0.7
	C26.1,34.5,26.1,33.8,26.3,33.2C27.2,32.2,26,34.1,26.3,33.2z M23.4,32.6c-3.2,0-3.2-7,0-7S26.6,32.6,23.4,32.6z"/>
<path class="st0" d="M32,56C18.8,56,8.2,45.3,8.2,32.2C8.2,19,18.8,8.3,32,8.3c13.2,0,23.8,10.7,23.8,23.8C55.8,45.3,45.2,56,32,56z
	 M32,10.3c-12.1,0-21.8,9.8-21.8,21.8C10.2,44.2,19.9,54,32,54s21.8-9.8,21.8-21.8c0,0,0,0,0,0C53.8,20.1,44.1,10.3,32,10.3L32,10.3
	z"/>
<rect class="st2" width="64" height="64"/>
</svg>
