<?xml version="1.0" encoding="utf-8"?>
<!-- Generator: Adobe Illustrator 19.2.0, SVG Export Plug-In . SVG Version: 6.00 Build 0)  -->
<svg version="1.0" id="Notifications" xmlns="http://www.w3.org/2000/svg" xmlns:xlink="http://www.w3.org/1999/xlink" x="0px"
	 y="0px" viewBox="0 0 64 64" style="enable-background:new 0 0 64 64;" xml:space="preserve">
<style type="text/css">
	.st0{fill:#FFFFFF;fill-opacity:0;}
	.st1{fill:#FFFFFF;}
	.st2{opacity:0.6;fill:#FFFFFF;enable-background:new    ;}
</style>
<title>icon-sailbook-settings</title>
<g id="icon-m-developer-mode">
	<rect id="icon-m-developer-mode-2" class="st0" width="64" height="64"/>
	<path class="st1" d="M25.3,55.8c-0.5,0-0.9-0.1-1.4-0.3l-2.9-1.2c-1.9-0.7-2.8-2.8-2-4.7c0,0,0,0,0,0l0.7-1.6
		c0.1-0.3,0-0.6-0.2-0.7c-1.1-0.9-2-1.8-2.9-2.9c-0.1-0.1-0.2-0.1-0.2-0.2c-0.2-0.1-0.3-0.1-0.5,0l-1.6,0.7
		c-0.4,0.2-0.9,0.3-1.3,0.3c-1.5,0-2.8-0.9-3.4-2.2l-1.2-2.8c-0.8-1.9,0.1-4,2-4.7c0,0,0,0,0,0l1.5-0.7c0.3-0.1,0.4-0.4,0.4-0.7
		c-0.1-1.3-0.1-2.7,0-4c0-0.3-0.1-0.6-0.4-0.7l-1.6-0.7c-1.9-0.7-2.8-2.8-2-4.7c0,0,0,0,0,0l1.2-2.9c0.7-1.9,2.8-2.8,4.7-2
		c0,0,0,0,0,0l1.7,0.7c0.3,0.1,0.6,0,0.8-0.2c0.9-1,1.8-2,2.9-2.9c0.2-0.2,0.3-0.5,0.2-0.7l-0.7-1.6c-0.8-1.9,0.1-4,2-4.7
		c0,0,0,0,0,0L24,8.5c0.4-0.2,0.9-0.3,1.3-0.3c1.5,0,2.8,0.9,3.4,2.2l0.6,1.6c0.1,0.2,0.3,0.4,0.6,0.4c1.4-0.1,2.8-0.1,4.1,0
		c0.3,0,0.5-0.1,0.7-0.4l0.7-1.6c0.7-1.9,2.8-2.8,4.7-2c0,0,0,0,0,0l2.8,1.2c1.9,0.7,2.8,2.8,2,4.7c0,0,0,0,0,0L44.2,16
		c-0.1,0.3,0,0.6,0.2,0.8c1,0.9,2,1.8,2.9,2.9c0.2,0.2,0.5,0.3,0.7,0.2l1.6-0.7c0.4-0.2,0.9-0.3,1.4-0.3c1.5,0,2.8,0.9,3.4,2.2
		l1.2,2.9c0.8,1.8-0.1,4-2,4.7c0,0,0,0,0,0L52,29.3c-0.3,0.1-0.4,0.4-0.4,0.7c0.1,1.3,0.1,2.7,0,4.1c0,0.3,0.1,0.6,0.4,0.7l1.6,0.7
		c1.9,0.7,2.8,2.8,2,4.7c0,0,0,0,0,0l-1.2,2.8c-0.6,1.4-1.9,2.2-3.4,2.2l0,0c-0.5,0-0.9-0.1-1.4-0.3L48,44.2c-0.3-0.1-0.6,0-0.8,0.2
		c-0.9,1-1.8,2-2.9,2.9c-0.2,0.2-0.3,0.5-0.2,0.8l0.7,1.6c0.8,1.9-0.1,4-2,4.7c0,0,0,0,0,0L40,55.5c-0.4,0.2-0.9,0.3-1.3,0.3
		c-1.5,0-2.8-0.9-3.4-2.2L34.7,52c-0.1-0.2-0.3-0.4-0.6-0.4c-1.4,0.1-2.8,0.1-4.1,0l0,0c-0.3,0-0.5,0.1-0.6,0.4l-0.7,1.6
		C28.1,54.9,26.8,55.8,25.3,55.8z M16.2,42.2c0.8,0,1.6,0.4,2.1,1c0.8,0.9,1.6,1.8,2.6,2.6c0.9,0.7,1.2,2,0.8,3.1L21,50.4
		c-0.3,0.8,0,1.8,0.9,2.1c0,0,0,0,0,0l2.9,1.2c0.8,0.3,1.7-0.1,2.1-0.9l0.7-1.6c0.4-1.1,1.6-1.7,2.7-1.6c1.2,0.1,2.4,0.1,3.6,0
		c1.2-0.1,2.3,0.5,2.7,1.6l0.7,1.6c0.4,0.8,1.3,1.2,2.1,0.9l2.8-1.2c0.8-0.4,1.2-1.3,0.8-2.1l-0.7-1.6c-0.4-1.1-0.1-2.3,0.8-3.1
		c0.9-0.8,1.8-1.6,2.6-2.6c0.7-0.9,2-1.2,3.1-0.8l1.6,0.6c0.8,0.3,1.7-0.1,2.1-0.9l1.2-2.8c0.3-0.8-0.1-1.8-0.9-2.1l-1.6-0.7
		c-1.1-0.4-1.7-1.6-1.6-2.7c0.1-1.2,0.1-2.4,0-3.6c-0.1-1.2,0.5-2.3,1.6-2.7l1.6-0.7c0.8-0.3,1.2-1.3,0.9-2.1l-1.2-2.9
		c-0.4-0.8-1.3-1.1-2.1-0.8l-1.6,0.7c-1.1,0.4-2.3,0.1-3.1-0.8c-0.8-0.9-1.6-1.8-2.6-2.6c-0.9-0.7-1.2-2-0.8-3.1l0.6-1.6
		c0.3-0.8-0.1-1.8-0.9-2.1l-2.8-1.2c-0.8-0.3-1.8,0.1-2.1,0.9l-0.7,1.6c-0.4,1.1-1.6,1.7-2.7,1.6c-1.2-0.1-2.4-0.1-3.6,0
		c-1.2,0.1-2.3-0.5-2.7-1.6l-0.6-1.6c-0.4-0.8-1.3-1.2-2.1-0.9l-2.9,1.2c-0.8,0.4-1.2,1.3-0.8,2.1l0.7,1.6c0.4,1.1,0.1,2.3-0.8,3.1
		c-0.9,0.8-1.8,1.6-2.6,2.6c-0.7,0.9-2,1.2-3.1,0.8L13.6,21c-0.8-0.3-1.7,0.1-2.1,0.9l-1.2,2.9c-0.3,0.8,0.1,1.8,0.9,2.1l1.6,0.7
		c1.1,0.4,1.7,1.6,1.6,2.7c-0.1,1.2-0.1,2.4,0,3.6c0.1,1.2-0.5,2.3-1.6,2.7l-1.6,0.7c-0.8,0.3-1.2,1.3-0.9,2.1l1.2,2.9
		c0.4,0.8,1.3,1.2,2.1,0.9l1.6-0.7C15.5,42.3,15.9,42.2,16.2,42.2z"/>
	<path class="st2" d="M32,44.2c-6.7,0-12.2-5.4-12.2-12.2c0-6.7,5.4-12.2,12.2-12.2c6.7,0,12.2,5.4,12.2,12.2c0,1.6-0.3,3.2-0.9,4.7
		C41.4,41.2,36.9,44.2,32,44.2z M32,21.8c-5.6,0-10.2,4.5-10.2,10.2S26.4,42.2,32,42.2c5.6,0,10.2-4.5,10.2-10.2
		c0-4.1-2.5-7.8-6.3-9.4C34.7,22.1,33.3,21.8,32,21.8L32,21.8z"/>
</g>
</svg>
