<?xml version="1.0" encoding="utf-8"?>
<!-- Generator: Adobe Illustrator 19.2.0, SVG Export Plug-In . SVG Version: 6.00 Build 0)  -->
<svg version="1.0" id="Events" xmlns="http://www.w3.org/2000/svg" xmlns:xlink="http://www.w3.org/1999/xlink" x="0px" y="0px"
	 viewBox="0 0 64 64" style="enable-background:new 0 0 64 64;" xml:space="preserve">
<style type="text/css">
	.st0{fill:#FFFFFF;}
	.st1{opacity:0.6;fill:#FFFFFF;enable-background:new    ;}
	.st2{fill:none;}
</style>
<title>icon-sailbook-events</title>
<path class="st0" d="M9.7,13.7v7.6l0,0v-8.1C9.7,13.4,9.7,13.5,9.7,13.7z M51.4,10.1H12.6c-0.3,0-0.6,0.1-0.9,0.2
	c0.3-0.1,0.6-0.1,0.9-0.1L51.4,10.1c0.3,0,0.6,0.1,0.9,0.2C52,10.2,51.7,10.1,51.4,10.1z M54.3,13.3v8.1l0,0v-7.6
	C54.3,13.5,54.3,13.4,54.3,13.3z"/>
<path class="st0" d="M9.7,13v0.2c0.1-1.3,0.8-2.4,2-3C10.5,10.6,9.7,11.7,9.7,13z M52.4,10.3c1.2,0.6,1.9,1.7,2,3V13
	C54.4,11.8,53.5,10.7,52.4,10.3z"/>
<path class="st0" d="M51.4,8.1H12.6c-2.7,0-4.9,2.2-4.9,4.9v37.9c0,2.7,2.2,4.9,4.9,4.9h38.8c2.7,0,4.9-2.2,4.9-4.9V13
	C56.3,10.3,54.1,8.1,51.4,8.1z M54.3,50.9c0,1.6-1.3,2.9-2.9,2.9c0,0,0,0,0,0H12.6c-1.6,0-2.9-1.3-2.9-2.9c0,0,0,0,0,0V23.3h44.6
	V50.9z M54.3,21.3H9.7v-7.6c0-0.1,0-0.3,0-0.4V13c0-1.2,0.8-2.3,2-2.7h0.1c0.3-0.1,0.6-0.2,0.9-0.2h38.8c0.3,0,0.6,0.1,0.9,0.2h0.1
	c1.2,0.4,2,1.5,2,2.7v0.2c0,0.1,0,0.3,0,0.4L54.3,21.3L54.3,21.3z"/>
<path class="st1" d="M55.3,33.9V32H44.9V21.3H43V32h-9.8V21.3h-2V32h-9.8V21.3h-2V32H8.7v1.9h10.8v8.7H8.7v1.9h10.8v10.2h2V44.6h9.8
	v10.2h2V44.6H43v10.2h2V44.6h10.3v-1.9H44.9v-8.7H55.3z M33.2,42.6v-8.7H43v8.7C43,42.6,33.2,42.6,33.2,42.6z"/>
<rect class="st2" width="64" height="64"/>
</svg>
