<?xml version="1.0" encoding="utf-8"?>
<!-- Generator: Adobe Illustrator 19.2.0, SVG Export Plug-In . SVG Version: 6.00 Build 0)  -->
<svg version="1.0" id="Requests" xmlns="http://www.w3.org/2000/svg" xmlns:xlink="http://www.w3.org/1999/xlink" x="0px" y="0px"
	 viewBox="0 0 64 64" style="enable-background:new 0 0 64 64;" xml:space="preserve">
<style type="text/css">
	.st0{fill:#FFFFFF;}
	.st1{opacity:0.6;fill:#FFFFFF;enable-background:new    ;}
	.st2{opacity:0.6;}
	.st3{fill:none;}
</style>
<title>icon-sailbook-requests</title>
<path class="st0" d="M32.8,19.9c-0.2-0.2-0.5-0.3-0.8-0.4c0-0.9-0.1-2.2-0.3-3.5c-0.1-0.9-0.6-3.9-1.9-4.9c-0.4-0.5-0.6-1.1-0.5-1.7
	c0.1-0.5-0.2-1.1-0.8-1.2c-0.2-0.1-0.5,0-0.7,0.1c-1.2,0.7-2.6,1.2-4,1.4c-0.3,0.1-0.7,0.1-1.1,0.1c-1.7,0.2-3.9,0.4-5.1,2.3
	c-0.7,1.2-1.1,2.6-1.2,4c-0.2,1.2-0.2,2.3-0.3,3.5c-0.3,0.1-0.5,0.2-0.8,0.4c-0.6,0.5-0.9,1.2-0.8,2c0,1.3,0.1,2.5,0.5,3.8
	c0.3,0.6,0.8,1,1.5,1.2c0.4,1.4,1,2.8,1.8,4c0.7,1,1.5,1.9,2.6,2.5c0.9,0.6,1.9,0.9,3,0.9c1.2,0,2.3-0.3,3.3-1c1.3-0.9,2.3-2,3-3.4
	c0.2-0.4,0.4-0.9,0.6-1.3c0.2-0.6,0.5-1.2,0.6-1.8c0.7-0.1,1.2-0.6,1.5-1.2c0.4-1.2,0.5-2.5,0.5-3.8C33.6,21.2,33.3,20.4,32.8,19.9z
	 M31.3,24.8c0,0.1,0,0.1-0.1,0.1h-0.4c-0.5,0-0.9,0.3-1,0.8c-0.2,0.8-0.4,1.5-0.7,2.2c-1.2,2.9-3,4.5-5,4.5s-3.9-1.7-5-4.5
	c-0.3-0.7-0.5-1.4-0.6-2.1c-0.1-0.5-0.5-0.8-1-0.8H17c0,0,0-0.1,0-0.1c-0.2-0.9-0.3-1.9-0.3-2.9c0-0.1,0-0.3,0.1-0.4
	c0.1,0,0.2-0.1,0.2,0c0.3,0.1,0.6,0,0.8-0.2c0.2-0.2,0.4-0.5,0.4-0.8c0-1.4,0.1-2.8,0.3-4.1c0.1-1.1,0.3-2.1,0.8-3.1
	c0.8-1.2,2.2-1.3,3.7-1.5c0.4,0,0.8-0.1,1.1-0.1c1.1-0.2,2.3-0.5,3.3-1c0.1,0.8,0.6,1.4,1.1,1.9c0.6,1.1,1,2.4,1.1,3.7
	c0.2,1.4,0.3,2.8,0.3,4.2c0,0.6,0.4,1,1,1c0.1,0,0.1,0,0.2,0c0.1,0,0.2,0,0.3,0c0.1,0.1,0.1,0.3,0.1,0.4
	C31.6,22.8,31.5,23.8,31.3,24.8z"/>
<path class="st1" d="M20.3,30.2c0.4,1,0.7,2.1,0.7,3.2c-1-0.6-1.9-1.5-2.6-2.5c-0.1-0.5,0.1-1,0.5-1.2L20.3,30.2z"/>
<path class="st1" d="M30.3,30c-0.7,1.4-1.7,2.5-3,3.4c0.2-1.4,0.6-2.9,1.2-4.2L30.3,30z"/>
<path class="st1" d="M48.1,35.3c-0.1,0.3-0.3,0.7-0.4,1c-0.1,0-0.2-0.1-0.2-0.1c-0.6,0.5-1.3,1-2.1,1.3c0.2-1,0.4-1.9,0.8-2.8v-0.1
	l0,0L48.1,35.3z"/>
<path class="st1" d="M40.1,35l-1.9,0.7c0.1,0.2,0.1,0.3,0.2,0.5l0,0c0.7,0.6,1.5,1.1,2.4,1.4C40.6,36.7,40.4,35.8,40.1,35z"/>
<path class="st0" d="M51.1,30.6c0.2-1.2,0.3-2.3,0.3-3.5v-0.5c0-6.3-3.8-11.4-8.4-11.4s-8.4,5.1-8.4,11.3c-0.1,1.4-0.1,2.8,0.2,4.1
	c0.3,1.7,0.5,3.2-0.1,4.6c0,0.1-0.1,0.2-0.1,0.2c-0.1,0.4,0,0.9,0.3,1.2c0.3,0.3,0.7,0.5,1.1,0.4c0.8-0.2,1.7-0.5,2.4-0.9l0,0
	c0.7,0.6,1.5,1.1,2.4,1.4c1.5,0.6,3.2,0.5,4.7-0.1c0.8-0.3,1.5-0.8,2.1-1.3c0.1,0.1,0.2,0.1,0.2,0.1c0.7,0.5,1.4,0.7,2.2,0.8
	c0.5,0,1-0.3,1.3-0.7c0.2-0.4,0.2-0.9,0-1.3C50.5,33.7,50.8,32.2,51.1,30.6z M49.1,30.2c-0.3,1.5-0.3,3-0.1,4.5
	c-0.3-0.2-0.7-0.4-1-0.6c-0.4-0.3-0.9-0.2-1.3,0.1l-0.4,0.3l-0.1,0.1c-2.2,1.9-4.8,1.8-7-0.4c-0.2-0.2-0.5-0.3-0.7-0.2
	c-0.1,0-0.3,0-0.4,0.1c-0.4,0.2-0.8,0.4-1.2,0.6c0.2-1.4,0.1-2.9-0.2-4.3c-0.3-1.2-0.3-2.4-0.2-3.6c0,0,0-0.1,0-0.1
	c0-5.2,2.9-9.4,6.4-9.4s6.4,4.2,6.4,9.4v0.5C49.4,28.2,49.3,29.2,49.1,30.2L49.1,30.2z"/>
<g class="st2">
	<rect class="st3" width="64" height="64"/>
	<path class="st3" d="M56.3,55.6H7.7v-1c0-7.3,0-13.6,9.5-15.4h0.1c0.4-0.2,1.7-1.7,1.7-4.5v-0.2c0.1-1-0.1-2-0.4-3l0,0v-0.1l0,0
		l-0.1-0.1c-0.1-0.1-0.1-0.2-0.1-0.3c0.7,1,1.5,1.9,2.6,2.5c0,0.3,0,0.7,0,1v0.1c0,3.9-2,6.4-3.5,6.5c-7.4,1.5-7.8,5.8-7.8,12.4
		h28.8c0-3.2-0.1-5.9-1-7.9c-0.3-0.7-0.7-1.3-1.2-1.8c-0.6-0.6-1.2-1.1-1.9-1.5c-1.2-0.6-2.5-1-3.8-1.2c-0.9-0.2-1.7-0.7-2.1-1.5
		c-1.1-1.9-1.5-4.1-1.2-6.3c1.3-0.9,2.3-2,3-3.4l0,0c-1.7,4-1.1,6.6-0.6,7.8c0.2,0.6,0.5,1,1,1.4h0.1c1.6,0.2,3.1,0.7,4.5,1.5
		c0.8,0.5,1.5,1,2.2,1.6c0.3-0.2,1.2-1.3,1.2-3.4c0-0.9-0.2-1.9-0.5-2.8l0,0c0.7,0.6,1.5,1.1,2.4,1.4c0.1,0.4,0.1,0.9,0.1,1.3
		c0.1,1.9-0.6,3.7-2,5c0.2,0.3,0.3,0.6,0.5,0.9c1.1,2.4,1.2,5.4,1.2,8.8h13.8c0.1-2-0.1-4.1-0.8-6c-0.2-0.5-0.6-0.9-0.9-1.3
		c-0.5-0.4-1-0.7-1.5-1c-0.9-0.5-2-0.8-3-1c-0.8-0.2-1.5-0.8-1.9-1.5c-0.9-1.6-1.2-3.5-0.8-5.3c0.8-0.3,1.5-0.8,2.1-1.3
		c0.1,0.1,0.2,0.1,0.2,0.1c-1.1,3.7,0.2,5.8,0.7,6c1.2,0.2,2.4,0.6,3.6,1.2c0.6,0.4,1.2,0.8,1.8,1.3l0.1,0.1c0.5,0.6,1,1.2,1.4,1.9
		c1,2.2,1,4.8,1,7.8L56.3,55.6L56.3,55.6z"/>
</g>
<path class="st1" d="M56.3,54.6v1H7.7v-1c0-7.3,0-13.6,9.5-15.4h0.1c0.4-0.2,1.7-1.7,1.7-4.5v-0.2c0.1-1-0.1-2-0.4-3l0,0v-0.1l0,0
	l-0.1-0.1c-0.1-0.1-0.1-0.2-0.1-0.3c0.7,1,1.5,1.9,2.6,2.5c0,0.3,0,0.7,0,1v0.1c0,3.9-2,6.4-3.5,6.5c-7.4,1.5-7.8,5.8-7.8,12.4h28.8
	c0-3.2-0.1-5.9-1-7.9c-0.3-0.7-0.7-1.3-1.2-1.8c-0.6-0.6-1.2-1.1-1.9-1.5c-1.2-0.6-2.5-1-3.8-1.2c-0.9-0.2-1.7-0.7-2.1-1.5
	c-1.1-1.9-1.5-4.1-1.2-6.3c1.3-0.9,2.3-2,3-3.4l0,0c-1.7,4-1.1,6.6-0.6,7.8c0.2,0.6,0.5,1,1,1.4h0.1c1.6,0.2,3.1,0.7,4.5,1.5
	c0.8,0.5,1.5,1,2.2,1.6c0.3-0.2,1.2-1.3,1.2-3.4c0-0.9-0.2-1.9-0.5-2.8l0,0c0.7,0.6,1.5,1.1,2.4,1.4c0.1,0.4,0.1,0.9,0.1,1.3
	c0.1,1.9-0.6,3.7-2,5c0.2,0.3,0.3,0.6,0.5,0.9c1.1,2.4,1.2,5.4,1.2,8.8h13.8c0.1-2-0.1-4.1-0.8-6c-0.2-0.5-0.6-0.9-0.9-1.3
	c-0.5-0.4-1-0.7-1.5-1c-0.9-0.5-2-0.8-3-1c-0.8-0.2-1.5-0.8-1.9-1.5c-0.9-1.6-1.2-3.5-0.8-5.3c0.8-0.3,1.5-0.8,2.1-1.3
	c0.1,0.1,0.2,0.1,0.2,0.1c-1.1,3.7,0.2,5.8,0.7,6c1.2,0.2,2.4,0.6,3.6,1.2c0.6,0.4,1.2,0.8,1.8,1.3l0.1,0.1c0.5,0.6,1,1.2,1.4,1.9
	C56.3,49,56.3,51.6,56.3,54.6z"/>
</svg>
