<?xml version="1.0" encoding="utf-8"?>
<!-- Generator: Adobe Illustrator 19.2.0, SVG Export Plug-In . SVG Version: 6.00 Build 0)  -->
<svg version="1.0" id="NewsFeed" xmlns="http://www.w3.org/2000/svg" xmlns:xlink="http://www.w3.org/1999/xlink" x="0px" y="0px"
	 viewBox="0 0 64 64" style="enable-background:new 0 0 64 64;" xml:space="preserve">
<style type="text/css">
	.st0{opacity:0.6;fill:#FFFFFF;enable-background:new    ;}
	.st1{fill:#FFFFFF;}
	.st2{fill:none;}
</style>
<title>icon-sailbook-newsfeed</title>
<path class="st0" d="M51.2,56H12.8c-2.7,0-4.9-2.2-4.9-4.9V28.5h2v22.6c0,1.6,1.3,2.9,2.8,2.9l0,0h38.5c1.6,0,2.9-1.3,2.9-2.9V28.5
	h2v22.6C56.1,53.8,54,56,51.2,56C51.3,56,51.2,56,51.2,56z"/>
<path class="st1" d="M55.1,28.5H8.9l0,0h-1V12.9C7.9,10.2,10,8,12.7,8l0,0h38.5c2.7,0,4.9,2.2,4.9,4.9v15.6H55.1z M9.9,26.5h44.2
	V12.9c0-1.6-1.3-2.9-2.8-2.9l0,0H12.8c-1.6,0-2.9,1.3-2.9,2.9l0,0V26.5L9.9,26.5z"/>
<path class="st1" d="M49,15c0,0.6-0.4,1-1,1H30c-0.6,0-1-0.4-1-1c0-0.5,0.3-1,0.8-1c0.1,0,0.1,0,0.2,0h18c0.5,0,1,0.3,1,0.8
	C49,14.9,49,14.9,49,15z"/>
<path class="st1" d="M45.4,21.3c0,0.5-0.3,1-0.8,1c-0.1,0-0.1,0-0.2,0H30c-0.5,0-1-0.3-1-0.8c0-0.1,0-0.1,0-0.2c0-0.6,0.4-1,1-1
	h14.4C45,20.3,45.4,20.8,45.4,21.3z"/>
<path class="st0" d="M22.6,22.6h-6.5c-0.5,0-1-0.3-1-0.8c0-0.1,0-0.1,0-0.2v-6.5c0-0.6,0.4-1,1-1h6.5c0.5,0,1,0.3,1,0.8
	c0,0.1,0,0.1,0,0.2v6.5C23.6,22.1,23.1,22.6,22.6,22.6z"/>
<rect class="st2" width="64.2" height="64.2"/>
</svg>
