<?xml version="1.0" encoding="utf-8"?>
<!-- Generator: Adobe Illustrator 19.2.0, SVG Export Plug-In . SVG Version: 6.00 Build 0)  -->
<svg version="1.0" id="Notifications" xmlns="http://www.w3.org/2000/svg" xmlns:xlink="http://www.w3.org/1999/xlink" x="0px"
	 y="0px" viewBox="0 0 64 64" style="enable-background:new 0 0 64 64;" xml:space="preserve">
<style type="text/css">
	.st0{fill:#FFFFFF;}
	.st1{opacity:0.6;fill:#FFFFFF;enable-background:new    ;}
	.st2{fill:none;}
</style>
<title>icon-sailbook-back</title>
<path class="st0" d="M38.9,55.6c-1.1,0-2.1-0.4-2.9-1.1L10.3,36.1c-2.3-1.4-3-4.4-1.6-6.7c0.4-0.7,1-1.2,1.6-1.6L36,9.4
	c1.6-1.1,3.1-1.4,4.3-0.8s1.9,2,1.9,4v38.7c0,1.9-0.7,3.3-1.9,4C39.9,55.5,39.4,55.6,38.9,55.6z M38.9,10.3
	c-0.6,0.1-1.3,0.3-1.8,0.7L11.5,29.4c-0.9,0.5-1.5,1.5-1.5,2.5c0.1,1,0.6,2,1.5,2.5l25.7,18.4c0.6,0.6,1.5,0.8,2.3,0.6
	c0.6-0.5,1-1.4,0.8-2.2V12.6c0.1-0.8-0.2-1.7-0.8-2.2C39.3,10.3,39.1,10.3,38.9,10.3L38.9,10.3z"/>
<path class="st1" d="M54.7,33.1H41.3c-0.6,0-1-0.4-1-1s0.4-1,1-1h13.4c0.6,0,1,0.4,1,1S55.2,33.1,54.7,33.1z"/>
<rect class="st2" width="64" height="64"/>
</svg>
