<?xml version="1.0" encoding="UTF-8" standalone="no"?>
<svg
   xmlns:dc="http://purl.org/dc/elements/1.1/"
   xmlns:cc="http://creativecommons.org/ns#"
   xmlns:rdf="http://www.w3.org/1999/02/22-rdf-syntax-ns#"
   xmlns:svg="http://www.w3.org/2000/svg"
   xmlns="http://www.w3.org/2000/svg"
   xml:space="preserve"
   style="enable-background:new 0 0 128 128;"
   viewBox="0 0 128 128"
   y="0px"
   x="0px"
   id="Layer_1"
   version="1.0"><metadata
     id="metadata3537"><rdf:RDF><cc:Work
         rdf:about=""><dc:format>image/svg+xml</dc:format><dc:type
           rdf:resource="http://purl.org/dc/dcmitype/StillImage" /><dc:title></dc:title></cc:Work></rdf:RDF></metadata><defs
     id="defs3535" /><g
     transform="translate(0,-4)"
     id="layer2"><linearGradient
       y2="83.5"
       x2="127"
       y1="83.5"
       x1="1"
       gradientUnits="userSpaceOnUse"
       id="SVGID_1_"><stop
         id="stop3487"
         style="stop-color:#EFF3FF"
         offset="0" /><stop
         id="stop3489"
         style="stop-color:#EDF1FD"
         offset="0.5848" /><stop
         id="stop3491"
         style="stop-color:#E6EAF5"
         offset="0.8633" /><stop
         id="stop3493"
         style="stop-color:#DFE3EE"
         offset="1" /></linearGradient><path
       id="path3495"
       d="M127,36v46.8c0,26.8-28.1,48.2-63.1,48.2H2.8c-1.2,0-1.8-0.5-1.8-1.4V36H127z"
       style="fill:url(#SVGID_1_);" /></g><rect
     id="rect3497"
     height="40.8"
     width="40.8"
     style="opacity:0.4;fill:#A5ABB3;"
     y="45.6"
     x="16.4" /><g
     id="g3499"><linearGradient
       y2="16.5"
       x2="127"
       y1="16.5"
       x1="1"
       gradientUnits="userSpaceOnUse"
       id="SVGID_2_"><stop
         id="stop3502"
         style="stop-color:#3B5998"
         offset="0" /><stop
         id="stop3504"
         style="stop-color:#6D84B4"
         offset="1" /></linearGradient><path
       id="path3506"
       d="M127,2.9V32H1V2.9C1,1.7,1.6,1,2.8,1H125C126.2,1,127,1.8,127,2.9z"
       style="fill:url(#SVGID_2_);" /></g><path
     id="path3508"
     d="M57.2,45.6v40.8h-5.9c-0.1-3.3,0.3-6.9-1.2-9.7c-1.5-2.7-4.3-4.6-7.6-5.1  c-1-1.2-1.2-2.8-0.6-4.1c1.2-1.6,2.1-3.3,2.5-5.1c0.9-3.8-0.3-7.5-2.8-10.3c-2.2-2.3-5.8-2.7-8.5-0.9c-3,2.3-4.6,5.9-4.2,9.6  c0.1,2.2,0.9,4.3,2.2,6.2C31.9,68,32,69,31.7,70c-0.1,0.7-0.4,1.3-0.9,1.7C27.1,72.5,24,74.3,23,78c-0.6,2.7-0.7,5.6-0.6,8.4h-6  V45.6H57.2z"
     style="opacity:0.7;fill:#A5ABB3;" /><g
     id="g3510"><rect
       id="rect3512"
       height="2.8"
       width="45.5"
       style="opacity:0.7;fill:#A5ABB3;"
       y="45.6"
       x="65.9" /><rect
       id="rect3514"
       height="2.8"
       width="45.2"
       style="opacity:0.7;fill:#A5ABB3;"
       y="58.2"
       x="65.9" /><rect
       id="rect3516"
       height="2.8"
       width="45.5"
       style="opacity:0.7;fill:#A5ABB3;"
       y="70.7"
       x="65.9" /><rect
       id="rect3518"
       height="2.8"
       width="18.4"
       style="opacity:0.7;fill:#A5ABB3;"
       y="83.2"
       x="65.9" /></g><g
     id="g3520"><path
       id="path3522"
       d="M29.6,15.1V22c0,0.8-0.6,1.5-1.5,1.5H16.5   c-0.8,0-1.5-0.7-1.5-1.5v-6.9H29.6z"
       style="opacity:0.2;fill:#FFFFFF;enable-background:new    ;" /><path
       id="path3524"
       d="M29.6,10.4v4.7H15v-4.7c0-0.8,0.6-1.5,1.5-1.5h11.7C28.9,8.9,29.6,9.5,29.6,10.4z"
       style="opacity:0.4;fill:#FFFFFF;" /></g><path
     d="M55.1,18.9c-1.7,2.3-4.9,3.4-7.6,2.7l-1.6,1.1l-0.7,0.5c-0.1,0.2-0.3,0.2-0.5,0.3  c-0.7,0-0.5-1-0.4-1.4c0-0.6,0.1-1.3,0.1-1.9c-2.2-1.8-2.9-4.9-1.7-7.4c1.3-2.6,4.2-4,7-3.8c2.4,0.2,4.7,1.5,5.9,3.6  C56.7,14.5,56.5,17,55.1,18.9z"
     style="opacity:0.2;"
     id="icon_messages" /><circle
     r="7.3"
     cy="16.2"
     cx="76"
     style="opacity:0.2;"
     id="icon_elipse" /><g
     style="opacity:0.2;"
     id="icon_settings"><path
       id="path3529"
       d="M109.6,17.2l-0.5-0.2c-0.1,0-0.1-0.1-0.1-0.2c0-0.4,0-0.9,0-1.3c0-0.1,0-0.2,0.1-0.2l0.5-0.2c0.6-0.2,0.9-0.9,0.6-1.4   l-0.4-0.9c-0.2-0.4-0.6-0.7-1-0.7c-0.2,0-0.3,0-0.4,0.1l-0.5,0.2c-0.1,0-0.2,0-0.2-0.1c-0.3-0.3-0.6-0.6-0.9-0.9   c-0.1-0.1-0.1-0.2-0.1-0.2l0.2-0.5c0.2-0.6,0-1.2-0.6-1.4L105.5,9c-0.6-0.2-1.2,0-1.4,0.6l-0.2,0.5c-0.1,0.1-0.1,0.1-0.2,0.1   c-0.4,0-0.8,0-1.3,0c-0.1,0-0.2-0.1-0.2-0.1L102,9.6c-0.2-0.4-0.6-0.7-1-0.7c-0.1,0-0.3,0-0.4,0.1l-0.9,0.4   c-0.6,0.2-0.9,0.9-0.6,1.4l0.2,0.5c0,0.1,0,0.2-0.1,0.2c-0.3,0.3-0.6,0.6-0.9,0.9c-0.1,0.1-0.2,0.1-0.2,0.1l-0.5-0.2   c-0.6-0.2-1.2,0-1.4,0.6l-0.4,0.9c-0.2,0.6,0,1.2,0.6,1.4l0.5,0.2c0.1,0,0.1,0.1,0.1,0.2c0,0.4,0,0.8,0,1.2c0,0.1,0,0.2-0.1,0.2   l-0.5,0.2c-0.6,0.2-0.9,0.9-0.6,1.4l0.4,0.9c0.2,0.4,0.6,0.7,1,0.7c0.1,0,0.3,0,0.4-0.1l0.5-0.2c0.1,0,0.1,0,0.2,0c0,0,0,0,0.1,0.1   c0.3,0.3,0.5,0.6,0.9,0.9c0.1,0,0.1,0.1,0.1,0.2l-0.2,0.5c-0.2,0.6,0,1.2,0.6,1.4l0.9,0.4c0.2,0.1,0.3,0.1,0.4,0.1   c0.5,0,0.9-0.3,1-0.7l0.2-0.5c0-0.1,0.1-0.1,0.2-0.1c0.4,0,0.8,0,1.3,0c0.1,0,0.2,0.1,0.2,0.1l0.2,0.5c0.2,0.4,0.6,0.7,1,0.7   c0.1,0,0.3,0,0.4-0.1l0.9-0.3c0.6-0.2,0.9-0.9,0.6-1.4l-0.2-0.5c0-0.1,0-0.2,0.1-0.2c0.3-0.3,0.6-0.6,0.9-0.9   c0.1-0.1,0.2-0.1,0.2-0.1l0.5,0.2c0.2,0.1,0.3,0.1,0.4,0.1c0.5,0,0.9-0.2,1-0.7l0.4-0.9C110.5,18.1,110.2,17.5,109.6,17.2z" /></g><rect
     id="rect3531"
     height="13.8"
     width="40.8"
     style="opacity:0.4;fill:#A5ABB3;"
     y="96.3"
     x="16.4" /></svg>