<?xml version="1.0" encoding="utf-8"?>
<!-- Generator: Adobe Illustrator 19.2.0, SVG Export Plug-In . SVG Version: 6.00 Build 0)  -->
<svg version="1.0" id="Messages" xmlns="http://www.w3.org/2000/svg" xmlns:xlink="http://www.w3.org/1999/xlink" x="0px" y="0px"
	 viewBox="0 0 64 64" style="enable-background:new 0 0 64 64;" xml:space="preserve">
<style type="text/css">
	.st0{fill:#FFFFFF;}
	.st1{opacity:0.6;fill:#FFFFFF;enable-background:new    ;}
	.st2{fill:none;}
</style>
<title>icon-sailbook-messenger</title>
<path class="st0" d="M17.1,56c-2.2,0-1.5-3.3-1.4-4.6c0.1-2.1,0.2-4.2,0.4-6.3c-7.1-6-9.7-16-5.5-24.5S24.4,7.5,33.7,8.1
	c7.8,0.5,15.4,4.8,19.3,11.7c3.7,6.8,3.2,15.1-1.5,21.4c-5.6,7.6-16,11.1-25.1,8.9l-5.4,3.5l-2.3,1.5C18.3,55.6,17.7,55.9,17.1,56
	L17.1,56L17.1,56z M32,10.1c-6.6-0.1-12.8,2.7-17.1,7.7c-4.1,4.9-5.4,11.6-3.2,17.6c1.2,3.3,3.4,6.3,6.2,8.5l0.4,0.3v0.5
	c-0.2,2.9-0.4,7-0.5,8.8c2.2-1.5,7.9-5.1,8.2-5.3l0.3-0.2l0.4,0.1c9.1,2.4,19.8-1.6,24.5-9.8c4.5-7.9,2.2-17.6-4.7-23.2
	C42.3,11.8,37.2,10.1,32,10.1z"/>
<polygon class="st1" points="18.2,36.4 29.8,23.9 35.3,29.8 45.7,23.9 34.3,36.4 28.5,30.5 "/>
<rect class="st2" width="64" height="64"/>
<rect class="st2" width="64" height="64"/>
</svg>
