<?xml version="1.0" encoding="utf-8"?>
<!-- Generator: Adobe Illustrator 19.2.0, SVG Export Plug-In . SVG Version: 6.00 Build 0)  -->
<svg version="1.0" id="Notifications" xmlns="http://www.w3.org/2000/svg" xmlns:xlink="http://www.w3.org/1999/xlink" x="0px"
	 y="0px" viewBox="0 0 64 64" style="enable-background:new 0 0 64 64;" xml:space="preserve">
<style type="text/css">
	.st0{fill:#FFFFFF;}
	.st1{opacity:0.6;fill:#FFFFFF;enable-background:new    ;}
	.st2{fill:none;}
</style>
<title>icon-sailbook-notifications</title>
<g id="Notifications-2">
	<path class="st0" d="M32,55.7c-13.2,0-23.9-10.7-23.9-23.9c0-6.6,2.8-13,7.6-17.5c1.8-1.7,4-3.1,6.3-4.1c1.2-0.6,2.5-1.1,3.8-1.4
		c1.2-0.3,2.4-0.5,3.5-0.7C30.2,8,31.1,8,32,8c2.5,0,4.9,0.4,7.3,1.1c0.6,0.2,1.2,0.4,1.8,0.7c0.1,0,0.3,0.1,0.4,0.2
		c8.8,3.7,14.5,12.3,14.4,21.8c0,9.3-5.4,17.7-13.8,21.6c-0.6,0.3-1.3,0.6-1.9,0.8C37.6,55.2,34.8,55.8,32,55.7z M32,10
		c-0.8,0-1.6,0-2.4,0.1c-1.1,0.2-2.2,0.4-3.4,0.6c-1.2,0.3-2.4,0.7-3.4,1.3c-2.1,0.9-4.1,2.2-5.7,3.8C8.2,24,7.7,37.9,15.9,46.7
		c4.1,4.5,10,7,16.1,7c2.6,0,5.1-0.5,7.5-1.4c0.6-0.2,1.2-0.4,1.7-0.7C49,48,53.9,40.3,53.9,31.8c0-8.8-5.3-16.8-13.4-20.1l-0.6-0.2
		v-0.1c-0.4-0.1-0.8-0.3-1.2-0.4C36.5,10.3,34.3,10,32,10z"/>
	<path class="st1" d="M41.1,53.8c-0.3,0-0.7-0.1-1-0.2c-0.7-0.3-1.2-0.9-1.4-1.6c-0.1-0.3-0.2-0.7-0.4-1.2c-0.5-1.3-0.9-2.6-1.3-4
		c-0.5-2-1.3-3.8-2.6-5.4c-1.4-1.5-2.6-5.6-1.7-7.1c-0.1-1-0.6-2-1.4-2.6c-1.3-0.6-2.6-1.1-4-1.4c-1.6-0.6-3.1-1.5-4.3-2.8
		c-0.3-0.6-0.6-1.3-0.9-1.9c-0.3-0.4-0.6-0.8-0.9-1.1c-0.9-0.9-1.2-3.5-0.3-5.6c0.3-0.6,0.5-1.1,0.7-1.4c-0.2-0.2-0.4-0.5-0.5-0.8
		c0-0.1-0.1-0.2,0-0.3v-0.1c-0.8-0.7-1.8-1.2-2.9-1.5l0.3-2c1.8,0.3,4.6,1.8,4.6,3.2V16c0.1,0.1,0.2,0.2,0.4,0.3
		c0.5,0.3,0.6,0.9,0.4,1.4c0,0.1-0.1,0.2-0.2,0.2l0,0c-0.1,0.2-0.5,1-0.8,1.7c-0.5,1.1-0.6,2.3-0.2,3.4c0.6,0.6,1,1.2,1.4,1.9
		c0.1,0.2,0.5,1.2,0.7,1.6c0.9,0.8,1.9,1.4,3,1.8c0.7,0.2,1.3,0.4,1.9,0.6c0-0.1,0-0.1,0-0.2c0,0,0-0.1,0-0.2
		c-0.3-0.2-0.7-0.5-1.3-1c-0.7-0.5-1-1.4-0.9-2.2c0.1-0.6,0.5-1.2,1.1-1.4l0.6-0.2c0.6-0.2,0.9-0.3,1.1-0.4s0.3-0.1,0.5-0.2
		s0.5-0.2,0.6-0.2c0.7-0.1,1.4,0.1,1.9,0.6l0.1,0.1l0.4,0.5c0.3-0.5,0.6-0.9,1-1.3c0.5-0.5,1.3-1.3,1.7-1.8l0.4-0.4
		c0-0.1,0.1-0.1,0.1-0.1c0.6-0.8,1-1.3,1.5-1.4c0.7-0.9,1.6-1.5,2.6-1.8c0-0.2,0.1-0.4,0.1-0.6c-1.9,0-3.8-0.5-5.5-1.5
		c-0.5-0.3-0.7-0.8-0.7-1.3c0.1-1,1.4-1.7,2.4-2c1.3-0.4,2.6-0.9,3.8-1.6l0.9,1.8c-1.3,0.7-2.7,1.3-4.1,1.7L37.7,14
		c0.9,0.4,1.9,0.7,2.9,0.8c0.1-0.2,0.2-0.4,0.4-0.5c0.5-0.4,1.2-0.6,1.8-0.5c1.1,0.1,3,0.5,3.6,1.3c0.2,0.4,0.2,0.9,0,1.2
		c-0.5,0.7-1.4,1.1-2.3,1h-0.2c0.2,0.3,0.2,0.7,0.1,1c-0.1,0.3-0.3,0.7-2.4,0.9c-0.6,0.2-1.2,0.7-1.6,1.2c-0.1,0.1-0.3,0.3-0.4,0.4
		c-0.2,0.1-0.3,0.2-0.5,0.2c-0.2,0.2-0.3,0.5-0.4,0.6c-0.1,0.1-0.2,0.3-0.3,0.4l-0.4,0.4c-0.5,0.5-1.3,1.4-1.8,1.9
		c-0.5,0.5-0.9,1.1-1.3,1.7c-0.2,0.3-0.4,0.4-0.7,0.5c-0.6,0-1.1-0.2-1.5-0.6c-0.3-0.3-0.6-0.7-0.8-1l0,0h-0.1L31.4,25
		c-0.2,0.1-0.5,0.2-0.8,0.2c-0.1,0-0.5,0.2-0.9,0.3l-0.4,0.1c0,0.1,0,0.2,0.1,0.2c0.9,0.7,1.2,0.9,1.3,1c0.5,0.3,0.8,0.8,0.8,1.4
		c0.5,0.5,1.1,1,1.7,1.4c0.7,0.3,1.5,0.4,2.2,0.4c1.3-0.2,2.7-0.2,4,0.1c2.1,0.7,4.1,1.6,6,2.6c1.5,0.8,4.8,3.3,5.2,4.4
		c0.2,0.6,0.1,1.7-0.3,3.4c0,0.2-0.1,0.5-0.1,0.5c-0.4,1.2-1.3,2.2-2.5,2.8c-1.2,0.9-2.3,1.9-3.3,3c-0.7,0.8-1.3,1.7-1.7,2.7
		c0,0.2,0,0.3,0.1,0.5s0,0.3,0.1,0.5c0.1,0.7-0.3,2.7-1.2,3.1C41.5,53.8,41.3,53.9,41.1,53.8z M40.6,52.1L40.6,52.1z M33.9,31.9
		c0.2,0.4,0.4,0.7,0.5,1.1c0.3,0.7,0.3,1.5-0.1,2.2c-0.1,1.7,0.4,3.4,1.4,4.8c1.5,1.9,2.6,4.1,3.1,6.4c0.3,1.2,0.7,2.5,1.2,3.7
		c0.2,0.6,0.4,1,0.5,1.3c0,0.1,0.1,0.2,0.2,0.3c0.1-0.2,0.2-0.5,0.2-0.7c0-0.1-0.1-0.3-0.1-0.6s0-0.3,0-0.4c0,0,0,0.1,0,0.1
		c-0.5-1.1,1.4-3.8,2.1-4.6c0.1-0.1,3.1-3.2,4.2-3.5c0.4-0.3,0.7-0.8,1-1.2c0-0.1,0.1-0.4,0.1-0.6c0.2-0.8,0.3-1.5,0.3-2.3
		c-1.3-1.3-2.7-2.5-4.3-3.4c-1.8-1-3.6-1.8-5.4-2.5c-1-0.2-2-0.2-3-0.1C35.3,32,34.6,32,33.9,31.9z M42.6,49.2L42.6,49.2L42.6,49.2z
		 M48.2,40.9L48.2,40.9z M33.2,24.9c0,0-0.1,0.1-0.1,0.1L33.2,24.9z M44.9,16.3L44.9,16.3z M42.4,15.8L42.4,15.8L42.4,15.8
		L42.4,15.8z"/>
</g>
<rect class="st2" width="64" height="64"/>
</svg>
