<?xml version="1.0" encoding="utf-8"?>
<!-- Generator: Adobe Illustrator 19.2.0, SVG Export Plug-In . SVG Version: 6.00 Build 0)  -->
<svg version="1.0" id="Notifications" xmlns="http://www.w3.org/2000/svg" xmlns:xlink="http://www.w3.org/1999/xlink" x="0px"
	 y="0px" viewBox="0 0 64 64" style="enable-background:new 0 0 64 64;" xml:space="preserve">
<style type="text/css">
	.st0{fill:#FFFFFF;fill-opacity:0;}
	.st1{fill:#FFFFFF;}
	.st2{opacity:0.6;fill:#FFFFFF;enable-background:new    ;}
</style>
<title>icon-sailbook-search</title>
<rect id="icon-m-search" class="st0" width="64" height="64"/>
<path class="st1" d="M51.5,55.8h-0.1c-1,0-2-0.5-2.8-1.2l-11-11l1.4-1.4l11,11c0.4,0.4,0.9,0.6,1.4,0.6c0.5,0,0.9-0.2,1.3-0.5
	c0.7-0.8,0.7-2-0.1-2.7l-11-11l1.4-1.4l11,11c1.6,1.5,1.6,4,0.1,5.5C53.4,55.4,52.5,55.8,51.5,55.8z"/>
<path class="st2" d="M27.2,46.6C16.5,46.6,7.9,38,7.9,27.4c0-10.6,8.6-19.2,19.3-19.2c10.6,0,19.2,8.6,19.2,19.2
	C46.4,38,37.8,46.6,27.2,46.6z M27.2,10.1c-9.5,0-17.2,7.7-17.2,17.3s7.7,17.2,17.3,17.2c9.5,0,17.2-7.7,17.2-17.2
	C44.4,17.9,36.7,10.1,27.2,10.1z"/>
</svg>
